<?xml version="1.0" standalone="no"?>
<!DOCTYPE svg PUBLIC "-//W3C//DTD SVG 20010904//EN"
 "http://www.w3.org/TR/2001/REC-SVG-20010904/DTD/svg10.dtd">
<svg version="1.0" xmlns="http://www.w3.org/2000/svg"
 width="1000.000000pt" height="400.000000pt" viewBox="0 0 1000.000000 400.000000"
 preserveAspectRatio="xMidYMid meet">

<g transform="translate(0.000000,400.000000) scale(0.100000,-0.100000)"
fill="#000000" stroke="none">
<path d="M4662 3742 l-582 -2 2 -368 3 -367 920 0 920 0 3 367 2 367 -342 3
c-189 2 -605 2 -926 0z m-378 -69 c2 -10 13 -73 22 -140 10 -68 21 -123 24
-123 4 0 12 42 19 93 7 50 17 114 23 140 l10 48 71 -3 72 -3 5 -245 c3 -135 7
-237 8 -228 10 77 63 438 67 456 5 20 11 22 80 22 61 0 74 -3 79 -17 3 -10 19
-115 36 -233 17 -118 33 -219 35 -225 2 -5 4 99 4 233 l1 242 75 0 c81 0 134
-16 172 -52 l23 -21 0 37 0 37 58 -3 57 -3 22 -155 c12 -85 24 -164 25 -175 2
-11 15 59 28 155 l25 175 160 0 160 0 0 -55 0 -55 -50 -5 -50 -5 -3 -44 c-6
-80 1 -91 58 -91 l50 0 0 -55 0 -55 -50 0 -50 0 0 -60 c0 -33 0 -63 0 -67 0
-5 21 -10 47 -13 l48 -5 3 -57 3 -58 -111 0 -110 0 -1 258 c-1 141 -4 248 -6
237 -2 -11 -21 -126 -41 -255 l-38 -235 -67 -3 c-62 -3 -67 -1 -72 20 -4 19
-28 160 -51 298 l-6 35 -14 -35 c-8 -19 -24 -44 -35 -56 l-20 -21 31 -104 c17
-57 33 -112 36 -121 5 -16 -2 -18 -53 -18 l-59 0 -18 71 c-33 127 -37 140 -47
134 -5 -4 -9 -51 -9 -106 l0 -99 -109 0 -109 0 -8 48 c-9 45 -10 47 -47 50
-40 3 -41 2 -52 -60 l-6 -38 -109 0 -110 0 -1 128 -1 127 -23 -125 c-13 -69
-24 -126 -24 -127 -1 -2 -14 -3 -31 -3 -23 0 -31 5 -35 23 -2 12 -13 67 -24
122 l-19 100 -1 -122 -1 -123 -60 0 -60 0 0 315 0 315 74 0 c63 0 75 -3 80
-17z m1496 -238 l0 -255 45 0 45 0 0 -60 0 -60 -105 0 -105 0 0 315 0 315 60
0 60 0 0 -255z"/>
<path d="M4960 3475 c0 -78 3 -95 15 -95 28 0 57 60 52 108 -5 44 -30 82 -54
82 -10 0 -13 -22 -13 -95z"/>
<path d="M4672 3388 c-16 -130 -16 -128 14 -128 l26 0 -7 78 c-13 148 -20 158
-33 50z"/>
<path d="M420 3296 c0 -3 118 -348 253 -736 41 -118 81 -231 89 -251 l15 -35
834 -208 c459 -115 840 -212 848 -216 8 -4 -173 -100 -480 -255 -272 -136
-497 -250 -501 -254 -6 -5 627 -870 667 -910 11 -12 56 -9 297 18 433 49 1052
122 1056 125 3 4 -108 13 -257 22 l-115 7 -200 122 c-111 67 -363 220 -561
340 -198 120 -366 224 -373 230 -11 10 65 38 360 137 205 69 389 131 409 137
l36 11 6 327 c4 180 5 328 3 330 -2 2 -295 121 -652 264 -357 143 -653 264
-658 269 -6 6 5 7 25 5 120 -17 402 -46 410 -43 10 3 -1486 568 -1503 568 -5
0 -8 -2 -8 -4z"/>
<path d="M9395 3172 c-1264 -657 -1741 -905 -1748 -911 -8 -8 -149 -562 -144
-568 5 -5 413 -119 877 -244 102 -28 189 -54 194 -59 4 -5 -20 -39 -55 -77
-35 -37 -187 -204 -338 -371 -150 -166 -279 -302 -286 -302 -7 0 -158 -11
-336 -24 -178 -14 -405 -30 -504 -37 -99 -7 -186 -15 -193 -19 -13 -6 70 -17
688 -90 179 -21 520 -61 758 -90 239 -28 436 -49 439 -47 2 3 37 99 78 213
298 844 355 1009 355 1019 0 6 -121 34 -292 68 -633 124 -955 186 -1001 192
-26 4 -49 11 -52 15 -5 9 -18 3 549 225 219 86 414 162 432 170 19 8 33 11 30
6 -3 -4 -64 -52 -135 -106 -72 -55 -128 -101 -126 -103 3 -4 197 56 685 212
l164 53 28 174 c73 465 119 771 116 782 -2 8 -71 -23 -183 -81z"/>
<path d="M7380 2600 c-124 -21 -307 -50 -407 -66 -100 -15 -187 -30 -192 -33
-6 -4 -28 -92 -50 -196 -22 -105 -72 -338 -111 -520 -39 -181 -87 -404 -106
-495 -19 -91 -52 -247 -74 -346 -22 -100 -40 -191 -40 -203 l0 -21 378 1 c207
1 482 4 610 8 l234 6 134 265 c74 146 134 268 134 272 0 5 -61 -37 -135 -92
l-135 -100 -315 0 c-173 0 -315 1 -315 3 0 2 14 43 31 93 17 49 112 328 211
619 99 292 193 569 209 616 l30 85 84 63 c47 34 87 67 91 72 8 13 -19 10 -266
-31z"/>
<path d="M2940 2522 c36 -21 89 -51 117 -68 29 -16 53 -36 53 -44 0 -8 -11
-112 -25 -230 -64 -541 -77 -659 -100 -870 -14 -124 -28 -240 -31 -257 l-5
-33 -71 0 c-39 0 -68 -3 -64 -7 10 -10 530 -282 534 -279 1 2 29 169 62 372
84 514 209 1282 216 1325 l5 36 -53 6 c-29 3 -195 24 -368 46 -173 23 -319 41
-325 41 -5 0 19 -17 55 -38z"/>
<path d="M6490 2474 c-63 -7 -227 -25 -365 -39 l-250 -25 -40 -47 c-244 -286
-985 -1153 -1119 -1309 l-171 -202 -115 -51 c-63 -28 -122 -56 -130 -61 -10
-6 113 -9 359 -7 l374 2 176 257 176 258 149 0 148 0 -6 -27 c-4 -16 -38 -126
-77 -246 -38 -120 -69 -224 -69 -232 0 -13 51 -15 365 -15 201 0 365 2 365 5
0 3 -25 19 -55 36 -45 25 -54 35 -50 52 3 12 30 161 60 332 31 171 76 420 100
555 24 135 58 324 75 420 16 96 32 185 35 197 4 16 36 40 103 79 53 32 106 63
117 71 18 12 18 13 -10 12 -17 -1 -82 -7 -145 -15z m-637 -692 l-76 -242 -95
0 c-51 0 -92 4 -90 8 7 18 331 482 334 479 2 -2 -31 -112 -73 -245z"/>
<path d="M3856 2399 c-3 -13 -34 -206 -70 -429 -157 -969 -187 -1145 -199
-1152 -7 -4 -43 -24 -81 -45 l-69 -38 308 -3 c295 -2 309 -1 329 17 12 11 311
364 666 784 l645 764 120 43 c66 23 124 46 129 50 4 5 -162 6 -370 3 -333 -5
-381 -7 -395 -22 -9 -9 -108 -142 -220 -296 -437 -598 -583 -794 -586 -791 -3
2 74 240 305 943 31 95 54 174 51 177 -3 3 -129 9 -281 12 l-277 7 -5 -24z"/>
<path d="M950 1668 c-215 -576 -328 -877 -429 -1145 -50 -133 -91 -246 -91
-251 0 -5 107 24 238 65 130 41 293 91 362 112 581 180 816 253 819 257 9 8
-42 3 -352 -37 -174 -23 -320 -40 -322 -37 -3 2 17 81 44 174 27 93 86 302
131 464 103 369 159 562 165 568 2 3 48 9 102 14 53 5 98 10 100 12 2 1 -48
17 -109 35 -229 66 -493 144 -504 148 -6 2 -71 -159 -154 -379z"/>
</g>
</svg>
