<?xml version="1.0" encoding="UTF-8"?>
<svg id="Layer_1" xmlns="http://www.w3.org/2000/svg" xmlns:ns0="http://www.w3.org/2000/svg" version="1.1" viewBox="0 0 256 256">
  <!-- Generator: Adobe Illustrator 29.7.1, SVG Export Plug-In . SVG Version: 2.1.1 Build 8)  -->
  <g>
    <path d="M106.8,79.5c12.5-9.6,29.9-9.6,42.4,0l8.6-10.7c-17.6-13.7-42.2-13.7-59.8,0l8.7,10.7Z"/>
    <path d="M160.6,71l-8.6,10.8c11.6,10.8,14.1,28.1,6.2,41.8l-19-18.3-8.9-20v30.4l18.7,18.1c-12.4,9.3-29.4,9.3-41.8,0l18.8-18.1v-30.4l-8.9,20-19,18.2c-7.9-13.6-5.5-30.9,6-41.7l-8.6-10.8c-10,9-15.8,21.9-15.8,35.4.8,26.7,23,47.7,49.7,46.9,25.6-.7,46.2-21.3,46.9-46.9,0-13.5-5.7-26.4-15.8-35.4Z"/>
    <path d="M172.8,133.2h1.3c.1.1.2.3.2.5,0,.3-.2.6-.5.7,0,0,0,0,0,0l.7,1h-.6l-.6-.9v.9h-.5v-2.2ZM173.3,133.6v.6h.4c0,0,0-.2,0-.2,0,0,0-.2,0-.2h-.4ZM173.6,136.3c-1.1,0-2-.9-2-2s.9-2,2-2,2,.9,2,2c0,1.1-.9,2-2,2,0,0,0,0,0,0h0ZM175.2,134.3c0-.9-.7-1.6-1.6-1.6s-1.6.7-1.6,1.6.7,1.6,1.6,1.6h0c.9,0,1.6-.7,1.6-1.6h0Z"/>
  </g>
  <g>
    <polygon points="43.1 160.7 48.6 168.6 37.5 168.6 43.1 160.7"/>
    <polygon points="139.4 168.9 135 179.4 135 179.4 130.4 168.9 125.5 168.9 120.9 179.3 116.6 168.9 109.2 168.9 118.3 189.6 123 189.6 127.6 179.2 132.2 189.6 137.1 189.6 146.2 168.9 139.4 168.9"/>
    <polygon points="241.9 168.9 241.9 176.2 229.2 176.2 229.2 168.9 222.2 168.9 222.2 189.6 229.2 189.6 229.2 181.6 241.9 181.6 241.9 189.6 248.9 189.6 248.9 168.9 241.9 168.9"/>
    <polygon points="154.6 168.9 140.7 189.6 148.4 189.6 157 176.2 165.5 189.6 173.4 189.6 159.9 168.9 154.6 168.9"/>
    <polygon points="58.4 168.9 50.6 168.9 42.8 181.5 35 168.9 27 168.9 40.1 189.6 44.9 189.6 58.4 168.9"/>
    <polygon points="167.9 168.9 167.9 174.3 176.9 174.3 176.9 189.6 184 189.6 184 174.3 191.1 174.3 194.7 168.9 167.9 168.9"/>
    <path d="M24,169.2c-.8-.2-1.6-.3-2.4-.3H6.1c-3.6,0-5.8,1.8-5.8,4.7v11.3c0,1.7.9,3.3,2.4,4h.3l4.3-4.4v-10.2h13.2v9.8h-9.7l-5.4,5.4h16.3c3.4,0,5.8-1.9,5.8-4.7v-10.7l-3.2-4.9h-.3Z"/>
    <path d="M213.4,168.9h-15.4l-.6.9h0l-4,5.9v9.1c0,2.8,2.4,4.7,5.8,4.7h14.1c2.9.3,5.5-1.7,5.8-4.6,0,0,0,0,0-.1v-3.6h-7.2v2.8h-11.4v-9.7h11.4v2.4h7.1v-3.1c.2-2.8-2.1-4.7-5.7-4.7Z"/>
    <polygon points="58 174 58 189.6 79.9 189.6 79.9 184.1 65.1 184.1 65.1 181.5 75.1 181.5 75.1 176.8 65.1 176.8 65.1 174.3 79.9 174.3 79.9 168.9 61.6 168.9 58 174"/>
    <path d="M102.7,181.8c2.5,0,5.2-1.3,5.2-3.8v-5c0-2.6-2-4.2-5.3-4.2h-19.6v20.6h7v-15.3h11.1v3.3h0c-.1,0-.3,0-.4,0h-7.5v4l8.7,7.8h9.6l-8.9-7.4Z"/>
    <polygon points="157 197.4 151.5 189.6 162.6 189.6 157 197.4"/>
    <path d="M253,169.5h1.3c.1.1.2.3.2.5,0,.3-.2.6-.5.7,0,0,0,0,0,0l.7,1h-.6l-.6-.9v.9h-.5v-2.2ZM253.5,169.9v.6h.4c0,0,0-.2,0-.2,0,0,0-.2,0-.2h-.4Z"/>
    <path d="M253.7,172.6c-1.1,0-2-.9-2-2s.9-2,2-2,2,.9,2,2-.9,2-2,2ZM255.4,170.6c0-.9-.7-1.6-1.6-1.6s-1.6.7-1.6,1.6.7,1.6,1.6,1.6h0c.9,0,1.6-.7,1.6-1.6Z"/>
  </g>
</svg>