<?xml version="1.0" encoding="UTF-8"?>
<svg id="Layer_1" xmlns="http://www.w3.org/2000/svg" version="1.1" viewBox="0 0 160 160">
  <!-- Generator: Adobe Illustrator 29.7.1, SVG Export Plug-In . SVG Version: 2.1.1 Build 8)  -->
  <path d="M61.8,58.4l7.3-34.4h81.9c4.4,0,7.9,3.6,7.9,8s0,1.1-.2,1.7l-20,93.9c-1,4.9-5.4,8.4-10.4,8.4h-32.7l15-69.9c.7-3.4-1.4-6.8-4.9-7.6-.4,0-.9-.1-1.3-.1h-42.7Z"/>
  <path d="M52.8,64.2c0,.1,0,.3-.1.4l-5.9,27.5c-.6,2.9,1.2,5.7,4.1,6.3.4,0,.7.1,1.1.1h18.7c2.9,0,5.3,2.4,5.3,5.3s0,.7-.1,1.1l-6.6,31H9c-4.4,0-7.9-3.6-7.9-8,0-.6,0-1.1.2-1.7L21.2,32.4c1-4.9,5.4-8.4,10.4-8.4h29.7l-8.5,40.2Z"/>
</svg>