<?xml version="1.0" standalone="no"?>
<!DOCTYPE svg PUBLIC "-//W3C//DTD SVG 20010904//EN"
 "http://www.w3.org/TR/2001/REC-SVG-20010904/DTD/svg10.dtd">
<svg version="1.0" xmlns="http://www.w3.org/2000/svg"
 width="400.000000pt" height="400.000000pt" viewBox="0 0 400.000000 400.000000"
 preserveAspectRatio="xMidYMid meet">

<g transform="translate(0.000000,400.000000) scale(0.100000,-0.100000)"
fill="#000000" stroke="none">
<path d="M1850 3563 c-19 -2 -84 -13 -144 -24 -626 -117 -1119 -605 -1245
-1234 -11 -55 -23 -139 -27 -187 l-7 -88 95 0 95 0 8 83 c36 427 259 803 615
1039 190 126 412 202 653 223 l77 7 0 94 0 94 -42 -2 c-24 0 -59 -3 -78 -5z"/>
<path d="M2020 3476 l0 -94 83 -7 c612 -51 1113 -491 1237 -1088 11 -51 22
-129 26 -174 l7 -83 93 0 c109 0 101 -15 84 148 -69 641 -540 1181 -1172 1343
-84 21 -266 48 -325 49 l-33 0 0 -94z"/>
<path d="M1825 3320 c-142 -19 -327 -78 -443 -141 -126 -69 -188 -115 -206
-152 -20 -44 -21 -109 -1 -151 8 -17 111 -126 227 -243 l213 -212 60 25 c85
35 221 74 261 74 l34 0 0 405 0 405 -42 -1 c-24 -1 -70 -5 -103 -9z"/>
<path d="M2022 2928 l3 -403 30 -3 c56 -6 180 -41 255 -72 l75 -31 216 218
c233 236 248 258 234 344 -9 51 -41 88 -118 137 -197 124 -472 212 -664 212
l-33 0 2 -402z"/>
<path d="M972 2823 c-63 -31 -179 -233 -236 -413 -36 -111 -66 -265 -66 -337
l0 -43 180 0 181 0 92 74 c110 88 254 187 357 246 41 24 77 45 80 47 10 9
-397 406 -435 424 -49 23 -109 24 -153 2z"/>
<path d="M2871 2825 c-30 -14 -441 -410 -441 -424 0 -4 37 -26 82 -51 95 -52
256 -164 371 -256 l80 -64 179 0 178 0 0 54 c0 68 -24 210 -51 299 -47 160
-174 393 -234 433 -36 24 -121 28 -164 9z"/>
<path d="M1913 2360 c-64 -15 -143 -62 -187 -111 -64 -71 -90 -143 -90 -249
-1 -75 3 -93 30 -151 129 -273 511 -285 652 -22 87 165 43 364 -106 474 -76
56 -205 82 -299 59z m135 -141 c98 -21 171 -113 172 -217 0 -126 -95 -222
-220 -222 -265 0 -312 378 -55 441 43 10 49 10 103 -2z"/>
<path d="M430 1948 c1 -60 28 -242 49 -326 167 -654 731 -1131 1394 -1178 l97
-7 0 95 0 95 -86 7 c-235 18 -455 96 -664 234 -165 110 -358 330 -450 511 -75
150 -130 348 -145 524 l-7 77 -94 0 -94 0 0 -32z"/>
<path d="M670 1936 c0 -135 61 -361 140 -521 65 -131 115 -205 156 -232 36
-23 118 -22 164 1 33 17 430 402 430 417 0 4 -50 37 -112 74 -123 74 -211 136
-338 237 l-85 68 -177 0 -178 0 0 -44z"/>
<path d="M2905 1929 c-93 -78 -255 -192 -371 -260 l-105 -63 203 -204 c112
-112 217 -211 233 -219 38 -21 110 -22 153 -4 62 26 187 242 246 427 31 97 56
237 56 315 l0 59 -177 -1 -178 0 -60 -50z"/>
<path d="M3367 1893 c-14 -224 -100 -463 -239 -671 -66 -99 -251 -285 -348
-349 -211 -139 -402 -209 -643 -236 l-112 -13 -3 -93 -3 -94 98 7 c666 49
1237 530 1397 1178 26 107 46 241 46 315 l0 43 -94 0 -93 0 -6 -87z"/>
<path d="M1397 1372 c-214 -216 -237 -247 -237 -322 0 -57 22 -93 83 -138 169
-124 418 -215 629 -229 l98 -6 -2 404 -3 404 -55 6 c-67 7 -153 32 -227 65
-31 13 -61 24 -67 24 -7 0 -105 -94 -219 -208z"/>
<path d="M2305 1553 c-70 -30 -188 -63 -227 -63 -62 0 -58 26 -58 -413 l0
-400 99 7 c162 10 316 54 476 134 161 80 226 137 240 208 15 80 -1 104 -233
337 -119 119 -221 217 -227 216 -5 0 -37 -12 -70 -26z"/>
</g>
</svg>
