<?xml version="1.0" encoding="UTF-8"?>
<svg id="a" data-name="Layer 1" xmlns="http://www.w3.org/2000/svg" viewBox="0 0 2031.32 979.85">
  <defs>
    <style>
      .b {
        fill: none;
      }

      .c {
        fill: #242021;
      }

      .d {
        fill: #efddbe;
      }
    </style>
  </defs>
  <g>
    <path class="d" d="M772.8,666.27c1.56-1.52,9.5,2.01,11.49,2.01,1.57,0,5.04-1.71,7-2,14.72-2.21,29.33-.22,43.93.04,37.45.66,71.67-3,107.8,9.12,40.36,13.45,76.51,44.92,91.79,84.93,1.3,2.44,6.24,8.58,6.72,10.25.87,2.98.63,6.59,1.92,11.05,4.9,17.02-.38,40.93-3.8,58.62-13.89,71.88-77.86,111.12-147.42,115.19-28.81,1.69-58.25-1.02-86.91.05-6.28.23-17.72.9-22.9-2.17-1.49-.88-2.63-2.9-3.6-3.39-5.77-2.93-7.99,5.23-11.52,5.27-1.46.02-7.48-2.49-10.01-2.74-26.72-3.04-54.02.1-80.88-1.08-3.55-1.01.18-8.54-.46-11.28,1.12-2.09,4.76-3.79,4.94-6.09.26-3.31-4.39-8.41-5.06-11.97-.97-4.56,1.3-35.12,0-36.41-.49-.48-4.63,1-6.52-.97-1.74-1.81-1.6-7.58-3.26-10.71-2.2-4.14-7.76-7.57-7.22-12.75.21-2.04,2.48-5.1,1.97-6.91-.23-.83-6.62-4.3-7.44-4.31-1.31,0-7.15,3.15-8.51,1.74-.47-.49.46-7.53-.07-9.4-1.08-3.79-11.55-.27-14.41-.55-3.83-.38-10.19-4.73-15.18-5.82-4.36-.95-6.75-.83-10.82-.18-8.42-.93-14.84,8.58-17.29,15.66-5.72,16.63-6.72,46.38-4.19,63.62,1.37,9.3,5.35,19.56,6.04,28.88,1.15,15.56-8.22,10.85-19.53,11.52-80.02,5.21-160.93-.62-240.93,2.03-14.3-1.24-4.52-6.44-.43-11.49,35.52-53.29,29.34-190.76,6.5-248.86-4.8-10.6-14.16-18.27-14.52-30.89l133.48.04c14.43-1.99,28.5-2.53,42.89-1.99,7.73.29,17.79-1.05,25.04-.05,1.8.25,6.89,2.9,7.38,4.61.69,2.41-.33,5.96.27,8.71.55,2.54,3.92,4.36,3.9,6.13-.04,2.8-3.7,9.63-4.09,13.93-.36,3.92-.34,11.08.05,14.99.4,3.95,2.86,9.16,3.05,12.94.17,3.41-1.06,7.69-4.58,4.54-5.27-17.06-25.22-37.23-38.48-48.37-8.48-6-28.32-6.46-38.5-5.55-2.64.24-9.54,1.87-10.34,4.64-.98,3.42,2,13.04.89,14.35-.95,1.12-2.67-1.22-3.2-2.29-2.14-4.29-1.94-9.85-8.77-5.17-6.32,4.32-11.92,23.41-13.79,31.12-.6,2.48-2.24,8.71-2.24,10.74,0,.99.9,1.94,1.01,3,.39,12.07,3.72,17.08,14.97,21.95,3.79,1.6,14.82,5.21,18.55,5.5,2.8.22,6.08-2.81,8.9-1.98,1.22.36,1.54,2.47,2.56,3.43,2.5,2.36,10.23,5.5,13.67,6.3,7.9,1.83,18.65,1.09,26.8.17,3.06-.35,8.99-2.99,11.01-3.04,8.22,2.43-.57,18.25-.55,24.44-.92,11.03,3.52,22.43,4.1,32.92.2,3.57-2.14,5.1-2.05,8.51-1.72.41-1.99-.66-3-1.5-9.12-7.58-17.84-20.09-27.01-26.91-10.38-7.13-55.85-35.75-64.83-20.85-.46,15.59.21,31.21-.07,46.8-.2,11.45-1.66,23.2-1.09,34.9.67,13.52,5.22,27.26,4.09,40.89-.38,4.61-2.62,10.29-3.04,14.92-.38,4.26-.85,16.77,2.98,18.95,4.36,2.49,7.32-.02,11.51-.5,23.94-2.72,47.26.38,70.48-9.46,7.25-3.07,13.67-8.01,20.94-11.02,3.38-1.4,15.15-4.33,16.57-6.41.92-1.34.24-7.44,1.93-11.04,1.93-4.11,6.48-7.29,8.34-10.62,4.45-7.96,9.13-23.02,12.72-32.19,11.74-29.98,22.06-60.81,33.91-90.82,6.26-15.84,20.37-40.68,18.5-57.31-.78-6.94-6.79-15.84-9.51-22.42-.9-2.18-1.12-5.45-1.95-7.03-.8-1.52-5.37-3.54-7.04-4.94-3.09-2.57-10.16-9.41-12.5-12.46-.67-.87-2.2-3.09-1.97-4.01.52-2.14,2.06-.72,2.66-.67,21.26-.29,42.63,1.92,63.82,3.16,3.46.14,16.94-.66,18.54.45,24.6,74.94,49.27,150.45,76.7,224.63,7.22,19.98,10.32,41.15,27.19,55.64.83.71,1.1,1.55,2.5,1.55,9.36-3.62,15.78-27.52,17.48-36.46.72-6.34-.49-21.45,2.5-26.42,1.47-2.44,5.59-4.21,6.35-7.63,1.46-6.63-2.25-7.47-4.37-12.29-3.02-6.87-4.31-28.7-3.47-36.42.09-.78,1.21-5.19,1.44-5.55,1.11-1.68,7.07-3.49,8.6-5.38.61-.76,2.03-4.28,1.9-4.92-.53-2.48-5.47-2.52-5.92-4.15s3.61-10.8,3.97-13.92c2.03-17.91-8.47-33.15-9.98-49.86-.84-9.32,2.45-17.41-.17-26.75-.84-2.98-4.53-5.55-5.67-9.3-2.88-9.49.8-22.74-7.64-30.28-1.03-.92-7.82-4.72-5.52-6.96ZM956.68,724.14c-.22-.23-2.23.12-3.29-.2-5.42-1.67-7.45-7.66-10.65-11.32-19.96-23.52-49.02-40.32-80.49-36.38-2.99.34-4.2,2.17-5.05,4.94-2.87,9.35-.81,16.41.57,25.47,1.13,7.45-.59,12.8-1,19.96-.34,5.91-.12,14.8,3.13,19.8,1.59,2.45,5.07,4.34,5.71,7.27,2.11,9.66-6.79,14.59-7.84,22.78-1.66,12.92.56,30.28.04,43.92-.55,14.32-2.49,28.2-2.09,42.88.4,14.66.2,31.14,2.24,45.63.81,5.76,5.11,11.88,5.79,17.15.62,8.22-2.6,19.94,10.5,18.45,41.31,2.54,80.7-39.72,93.23-76.51,11.14-38.27,13.32-78.5-2.8-115.46-.21-6.08,10.93-3.98,9.05-13.99-.5-3.5-6.34-5.57-9.52-5.54-1.51.01-2.3.82-3.17.96-4.14.71-3.38-8.81-4.35-9.82ZM832.78,681.22c-1.07-1.02-11.82-.11-12.88,3.6-.26.9-.34,6.14-.11,6.37.66.67,8.62-.75,10.02-1.47,2.05-1.06,4.12-7.41,2.98-8.5ZM950.71,694.19c.29.28,2.18.04,3.01-.49,1.65-1.05,1.6-5.18-.51-6.49-2.82,1.13-2.42,1.74-3.21,4.5.65.65.62,2.39.71,2.48ZM961.71,698.18c.6-6.34-3.6-6.34-3,0h3ZM361.01,701.17c-.84-.84-3.8,1.7-4,2.99l1.58.62c1.31.51,3.14-.79,3.02-2.19l-.6-1.42ZM390,719.12c-.15.18-1.13,3.71-.93,4.38,1.09,3.76,7.43,3.53,5.84-1.79-.45-1.51-4.04-3.6-4.9-2.59ZM648.86,828.81c1.52-15.99-14.54-66.17-22.52-78.75-3.3-4.01-2.84-2.47-7.37-.94-4.14,14.43-8.63,28.82-13.28,43.1-2.29,7.04-8.38,15.11.82,20.5,5.2,3.05,12.28,4.94,17.7,7.27,1.69.73,3.48,2.47,5.64,3.35,2.62,1.06,17.91,6.6,19.01,5.46ZM368.01,756.01h-7c-.07,2.75-.68,7.96,2.58,8.92,4.77,1.41,5.29-8.06,4.42-8.92ZM700.8,926.58c-.54-.49-3.81-1.3-4.99-.56-.47.3-1.76,1.66-1.9,2.14-.21.72.76,4.11.97,4.34.29.31,4.65.37,5.5-.93.61-.94.72-4.72.43-4.98ZM1710.33,956.46c-.18-.17-.05-3.43.16-4.33.75-3.32,4.77-6.94,6.36-10.6,15.77-38.2,9.27-84.62,10.47-124.68h10c.41-1.71-.66-1.98-1.5-2.99-3.07-3.7-7.62-4.95-8.5-10.46.33-13.3-.4-26.65-.04-39.94.18-6.42,1.49-12.89,1.09-19.94-.56-9.97-3.31-20.04-4.04-29.88-.74-10.09,1.23-22.22,0-31.9-.62-4.86-6.74-12.43-6.73-15.97,0-.13.66-2.37.75-2.46,1.36-1.28,14.4,2.77,17.43,3.02,13.1,1.08,38.04,1.18,51.06,0,4.1-.37,7.45-2.6,11.95-2.03,2.12.27,4.28,1.9,6.5,1.99-1.29,5.23-6.22,7.66-8.86,11.6-2.11,3.15-6.9,15.28-7.18,18.85-.13,1.68,1.01,3.05,1.09,4.91.52,12.71-.78,25.42-1.09,37.9-.29,11.55.09,22.52-.95,33.96-.34,3.8.9,5.96,1.04,8.93.52,6.31-3.53,29.61,8.45,20.49,3.86-4.13,7.45-12.07,11.03-16.92,10.49-14.26,21.52-21.96,28.91-38.97,8.29-19.1,33.47-48.94,35.52-67.28.56-4.99-1.81-12.47,5.5-13.46,2.09-.29,11.23-.37,12.89.12,1.29.38,6.4,5.37,8.61,6.37,1.34.6,6.23,1.82,7.46,1.46,3.05-.88,0-7.98,3.11-8.87,3.06-.87,10.96.12,14.91-.08,8.8-.71,18.33.11,26.99-2.06.86,0,6.16,1.8,6.5,2.08.38.31.15,2.64-1,3.47-7.3,5.26-16.35,8.05-23.95,13-27.61,19.95-54.52,42.38-74.87,69.9-1.95,9.33,10.57,21.66,14.71,29.94,3.15,5.56,2.89,7.79,7.67,12.29,22.41,21.13,25.27,44.21,39.6,69.19,4.57,7.97,6.64,10.79,13.83,16.12,5.26,3.9,4.38,7.75,7.16,12.8,9.13,16.55,34.28,43.76,48.86,55.96,2.82,2.36,7.21,3.69,8.96,7.51h-121.44c-.38,0-1.62-1.41-1.45-2.43.1-.57,1.36-2.04,1.76-3.24,3.36-10.04,8.02-21.43,3.38-31.92-1.65-3.73-6.29-8.51-7.04-11.92-1.54-7.04,4.49-13.96.79-21.23l-7.31-1.18c-2.4-.73-12.67-22.18-15.14-25.78-11.06-10.8-17.91-24.69-27-36.88-4.09-5.48-8.74-12.92-15.98-7.03-3.94,3.2-6.91,10.53-7.47,15.49-.26,2.36.65,6.83-.47,8.5-3.69,3.43-9.58-3.98-11.57,10.39-1.07,12.1.44,25.04,1.04,36.95.41,8.17-1.36,16.09.01,23.92,1.78,10.11,10.2,28.23,16.52,36.37,1.84,2.37,6.46,5.4,6.51,8.5.01.82-.95,2.5-1.54,2.5h-103.45ZM1743.32,782.94c-5.94-1.9-9.64,9.7-5.42,10.9,8.15,2.3,7.86-5.68,5.42-10.9ZM1738.23,921.65c-.65-.6-3.45-1.33-3.91.41-.5,1.89.76,4.93,2.54,5.44.64.18,2.34.42,2.46-.46.15-1.14-.49-4.84-1.09-5.39ZM1912.74,923.55c-2.93.72.11,5.73,1.01,6.96,1.8,2.47,12.05,10.61,13.47,5.5.82-2.95-5.34-7.92-7.63-9.34-1.02-.63-6.25-3.28-6.86-3.13ZM53.66,656.29c3.54.79,6.15,5.08,8.49,6.49,5.16,3.09,8.48.97,12.02-2.97.81-.9,1.16-2.54,1.92-3.07,52.37-1.39,108.39-7.99,158,13.99,12.95,5.7,35.36,18.13,42.82,30.07,2.31,3.69,4.54,12.57,7.8,14.16,2.45,1.19,6.78,1.42,8.87,3.12,1.66,1.35,5.73,10.36,6.97,12.99,14.21,31.63,23.08,71.4,12.48,105.24-.29,2.55.5,14.86-.06,15.4-.36.34-4.79,1.55-5.81,2.18-7.1,19.23-20.52,37.17-36.14,50.2-6.77,4.18-10.96,3.09-12.45,12.51-1.37,2.69-7.06,2.02-9.85,3.13-1.64.66-3.63,2.81-5.31,3.67-38.39,20.44-78.19,17.28-119.79,19.1-7.01.65-14.94,2.61-21.95,3.03-19.12,1.15-37.18-1.72-56.2,1.77-3.34.46-10.01.88-8.19-4.19.77-2.51,7.67-9.13,9.74-12.22,10.67-15.89,16.91-35.99,20.11-54.72-.59-43.7,1.64-87.26-2.04-130.67.42-4.54,2.55-7.74,2.09-12.97-2.04-27.45-16.34-49.77-33.5-70.29-1.24-1.72-2.88-3.68-2.53-5.95h22.49ZM229.07,705.16c-1.2-1.19-6.2,1.64-7.67,1.87-3.89.6-7.27-7.01-9.3-9.37-11.69-13.59-30.52-24.72-46.65-32.24-5.5.71-31.56-1.62-34.38.31-.82.56-1.87,5.51-2,6.98-2.39,27.28,1.11,59.36,1.05,86.8,1.03,5.73,3.48,12.27,3.99,17.96,1.13,12.5-5.68,22.82-6.99,34.9-.94,8.69,5.03,19.64,5.98,27.93.89,7.8-1.17,14.4-3.18,21.74-.72,2.64-3.07,7.21-2.87,10.14.18,2.56,4.51,6.73,5.05,10.99,1.72,13.45.34,27.42,2.01,40.88.69,5.59,5.12,8.88,10.5,9.47,8.93.98,18.37-.62,26.99-1.98,9.87-1.55,6.83-2.28,13.52-7.46,3.38-2.62,7.79-3.8,10.94-6.04,4.17-2.96,6.16-8.56,12.51-8.54,3.27.01,8.59,2.59,12.18,2.9,3.3-.25,8.51-1.09,11.29-3.34,5.15-3.96,4.53-17.38,6.21-23.72,2.99-11.32,7-19.57,8.8-32.11,4.86-37.59,8.15-88.53-13.18-121.46-1.62-3.25-8.18-15.51-7.7-17.99.31-1.62,4.54-6.99,2.89-8.63ZM268.02,749.07c-.34-.36-4.87-.13-5.99.43-1.65.83-2.78,4.85-1.97,5.5.39.31,7.57,1.39,7.96.98.12-.13,1.07-3.18,1.07-3.46s-.95-3.32-1.08-3.45ZM1272.56,942.5l3.5-4.98c1.8-.55,4.48,4.46,6.1,4.92,2.83.81,7.64-4.23,8.83-3.9.75.21,4.03,4.81,5.56,2.98.15-.18.93-3.88,1-4.5.07-8.03-1.7-8.83,7.5-8.48,12.31-1.54,29.17-8.1,40.51-13.43,6.72-3.16,24.34-15.31,30.48-14.52,2.65.34,2.85,3.48,4.46,5.54,9.53,12.27,24.2,20.89,35.53,31.37,4.1,3.79,6.31,8.5,9.45,11.51,2.55,2.44,7.03,3.94,9.06,6.92,1.49,2.18,3.25,6.15-.51,6.55h-99.02c-7.68-4.32-14.23.94-20.95-.02-2.47-.35-6.53-2.95-9.2-3.79-2.46-.77-7.06-2.27-9.32-.75-1.83,1.24-.25,4.37-1.47,4.54-4.37.6-7.9-1.68-11.94-2.05-16.32-1.49-35.55,1.67-51.97,2.08l-172.46-.04c.39-5.48,4.56-9.28,6.81-13.65,9.99-19.38,9.39-38.77,10.14-59.69.64-17.8,1.58-35.05,1-52.77-1.61-48.69,9.5-115.34-21.92-155.64-2.09-2.68-8.25-6.73-3.05-9.98,1.73-1.08,7.94,1.36,10.48,1.57,22.53,1.6,45.59,1.03,67.97-.09,8.03-.25,17.24.82,25.02.04,3.59-.36,9.08-3.26,12.53-1.52.34.17,1.9,1.88,1.9,2.01,0,1-10.16,13.54-11.77,16.11-21.09,33.71-13.97,76.18-15.1,114.58-.73,24.69.7,49.78,0,74.79-.48,17.35-3.41,35.36-2.09,52.85.41,3.39.94,8.34,2.54,11.43,1.19,1.93,6.49,2.83,8.96,3.03,3.86.31,9.08.13,13.03-.05,28.28-1.25,59.2-2.21,86.96-5.98,7.46-1.01,17.73-7.41,21.5,3ZM1209.2,948.6c-3.66,1.06-3.66,8.69,0,9.74,10.13,2.93,10.13-12.67,0-9.74ZM1672.35,902.61v-17.45c0-.57,2.41-3.1,2.83-4.16,1.2-2.98.76-10.9,1.17-11.3.3-.3,7.61-.54,7.92,1.57-.07,10.61.34,21.27.12,31.88-.32,15.18-3.31,32.56.13,47.64.74,3.24,4.56,10.42,3.78,13.1-.12.41-1.09,1.33-1.54,1.46-20.56,1.68-43.95-2.64-64.94-.97-18.97,4.5-39.77,2.11-58.93,1.05-12.88-1.44-46.72-1.65-51.95-15.98-1.67-2.11-10.51-.4-13.86-1.13-9.84-2.15-34.38-24.18-41.66-32.23-4.41-4.88-16.07-18.79-16.05-24.96,0-2.51,1.9-4.7.96-7.87-.42-1.44-3.52-3.14-4.39-4.59-1.77-2.98-1.81-8.73-2.7-12.26-2.6-10.25-7.1-21.7-7.83-32.08-1.14-16.08,1.23-37.08,4.03-52.91,3.9-22.09,24.16-57.83,42.02-71.76,31.93-24.55,80.42-37.63,120.4-35.43,4.4.24,26.27,11.26,28.49,8.97,1.43-1.47-3.05-8.47,1.61-9.86,10.21-1.44,22.15,1.42,32.91.93,7.37-.1,29.93-10.49,31.31,1.28-.85,4.89-6.29,12.56-8.39,17.6-9.03,21.62-8.86,45.26-15.7,67.11-.91,2.9-4.23,11.72-7.65,6.1-7.62-20.29-12.69-43.92-27.08-60.74-29.07-34-82.91-19.98-103.84,15.12-11.94,20.9-30.09,54.5-26.13,78.65.68,9.51-3.15,19.02-1.99,27.91.26,1.95,1.74,4.04,1.99,5.99.65,4.93.39,10.5,1,15.95,4.9,43.6,31.81,96.52,79.47,104.2,19.23,3.1,40.6-3.19,53.49-18.42,3.56-4.21,6.35-9.91,9.95-14.01,2.73-3.11,20.51-17.58,23.67-18.27,2.31-.5,4.97.03,7.34-.15ZM1659.36,701.17h-4v.99h4v-.99ZM1659.36,733.08h-9s0,7.98,0,7.98c1.2,1.25,7.53-1.48,8.55-2.94.6-.86.65-4.85.45-5.04ZM1364.33,859.55c-14.5,14.72-48.16,23.35-68.24,25.16-14.1.77-29.42-2.97-42.53-7.52-3.43-2-3.37-7.14-5.96-10.01-1.51-1.67-3.79-2.03-5.55-3.43-3.33-2.66-12.47-15.59-14.07-15.94-1.3-.29-6.28,3.3-8.05,3.82-5.59,1.13-7.1-4.92-9.88-8.81-10.33-14.45-18.42-27.81-22.26-45.6-2.88-13.34,1.04-14.62,2.8-25.74,2.75-17.4-.35-29.78,7.48-47.38,21.48-48.33,80.37-70.51,129.77-54.63,10.86,3.49,19.73,10.97,29.65,15.29,6.57,2.86,14.12,3.53,20.54,6.43,4.09,7.85,5.73,16.78,8.94,24.98,4.48,11.4,12.53,22.84,13.56,35.33,3.18,38.48-8.54,80.49-36.21,108.06ZM1290.23,681.41c-8.74,1.47-18.02,14.17-22.53,21.4-7.46,11.97-9.9,26.88-11.14,40.73-.1,1.06-1.01,2.01-1.03,3.01-.03,1.59,3.4,6.47,3.02,7.93-.41,1.58-3,1.34-4.03,2-5.93,8.54-1.74,20.55-.97,29.96,1.82,21.3.16,38.1,11.15,57.69,9.77,17.42,24.4,28.18,44.54,17.81,11.4-5.87,16.68-24.06,20.05-35.84,10.69-37.32,8.16-78.73-.98-116.24-3.19-16.18-8.85-18.93-21.43-27.48-3.97-1.41-12.47-1.67-16.66-.97ZM1216.14,828.88c-3.22.9-3.22,11.59.86,10.86,7.29-1.29,7.67-13.24-.86-10.86ZM1510.43,802.38c.74,2.85,9.47.62,9.94-1.04.33-1.17-.36-5.81-.95-6.43-1.67-1.78-9.72,4.66-9,7.47ZM413.91,648.74c1.02-3.39-3.75-4.38-3.92-2.92v5.48c.71.81,3.63-1.59,3.92-2.57ZM913.2,724.07c-2.61,5.12,3.81,9.87,4.56,4.55.19-1.36.27-7.57-1.53-7.51-.21,0-2.87,2.64-3.03,2.96ZM146.12,827.82v6.98c10.3.53,13.18-9.13,0-6.98Z"/>
    <g>
      <path class="c" d="M1271.15,331.3c-.89,13.34-5.77,23.74-8.73,36.31-2.69,11.42-6.67,24-9.11,34.39-.39,2.31.25,4.88-.39,7.06-.38,1.54-15.52,20.53-18.09,25.41-5.26,9.88-8.34,22.07-12.96,32.08-1.8,3.98-8.85,11.03-7.06,13.98,4.88,7.57,10.39,1.8,18.09,2.96,3.21.51,5.39,3.33,8.98,3.08-7.21,4.84-9.17,1.74-14.11,7.07-1.66,1.8-6.11,4.33-7.2,8.5-.44,1.68-2.49,7.46-3.72,8.7-.25-1.03-13.21-13.98-14.88-15.14-8.08-5.52-13.6-1.41-20.15,3.72-19.12,15.4-44.4,27.46-67.11,37.86-7.32,3.34-17.71,5.78-24,8.98-2.18,1.02-3.46,3.46-5,3.98-2.89.84-6.02,1.53-9.3,2.09h0c-.7.12-1.4.23-2.11.34-.52.08-1.03.17-1.56.24-1.56.23-3.15.44-4.75.65-.31.04-.62.07-.93.11-1.88.23-3.79.44-5.68.64-.04,0-.09.01-.13.01-1.38.15-2.75.29-4.12.43-.08.01-.17.02-.25.02-.72.08-1.45.15-2.16.23-.72.07-1.43.15-2.14.23-.79.09-1.58.17-2.36.26-.45.05-.9.1-1.34.15-2.22.26-4.37.55-6.42.87-9.24,1.41-15.79,5.26-25.66,4.49-21.69-1.67-49.15-6.55-70.07-13.86-24.64-8.6-53.76-20.91-73.78-37.08-2.57-2.18-4.75-5.39-7.44-7.57-7.44-6.03-15.52-11.55-22.71-17.84-11.68,4.75-15.14,12.19-13.99,24.64.47,4.83,1.34,7.81,3.27,10.56-7.44-7.44-8.52-7.3-12.58-14.34-2.22-3.85-1.37-5.59-4.46-8.77-4.96-5.1-6.16-3.28-10.26-7.38,0,0-.04-.04-.12-.12,1.37.29,2.89.1,4.66-.78.77-.39,12.32-11.93,12.7-12.7,5.65-11.16-7.96-15.52-12.06-22.46-13.98-23.23-28.87-47.99-36.44-74.55-6.16-21.56-9.24-42.09-12.32-64.03-.38-2.44-2.44-3.21-2.82-4.75-1.8-6.03,4.75-35.93,5.78-44.78.38-4.37-.65-8.98.25-13.22.9-3.59,7.57-19.89,9.49-25.02,11.81-30.67,29.39-59.03,42.99-88.93,1.41-3.08,7.83-6.8,8.6-9.37,1.41-4.88-2.44-6.42-5.14-9.62-.77-.77-.9-2.69-.9-2.69l-.25-.13c-1.16-1.41-5.91,1.03-7.83,1.03-3.72-.26-7.18-1.8-12.19-1.16-2.66.33-5.49,1.59-8.23,3.33,8.52-12.17,17.67-13.31,17.67-13.31,0,0,4.11-.75,6.03-.28,2.51.61,3.92-.02,4.69-2.49.4-1.3,1.24-2.82,1.24-2.82,0,0,3-1.3,4.24-6.63,2.6,3.97,10.23,8.76,11.96,12.11.77,1.67.64,4.24.77,4.49,1.8,2.44,13.98-7.06,16.55-8.21,16.55-7.57,29.25-13.73,45.42-22.07,31.05-16.04,47.86-20.79,82.38-25.54,10.26-1.41,12.7-6.67,25.92-5.78,30.15,2.18,66.98,6.29,95.59,16.94,12.83,4.75,26.05,12.31,38.5,18.35,7.57,3.59,22.46,13.85,27.97,15.52,2.18.52,4.24-.25,6.55.9,3.59,1.8,5.26,8.85,11.16,8.34,5.9-.52,15.27-9.49,18.86-14.24.03-.04.06-.07.08-.11.81-1.06,1.36-1.93,1.71-2.68.62-1.32.6-2.2.22-2.89,4.13,3,1.67,4.54,2.63,7.34.98,2.87,3.04,2.73,4.7,3.15,1.82.45,2.51,1.87,5.57,1.37,1.48-.24,4.41.92,10.19,6.33-2.42-.52-4.98-.5-7.13.58-3.98,6.16-13.86,9.11-14.89,16.55-1.54,10.65,4.62,9.49,5.78,13.73.52,2.05-.13,4.62.52,6.93,2.05,8.47,13.98,20.4,18.99,29,10.78,18.22,29.38,57.1,31.69,77.76.52,4.88-.38,10.26,0,15.01,1.16,13.86,3.98,26.43,4.62,40.42.39,7.32.52,16.81,0,24.12Z"/>
      <g>
        <g>
          <path class="d" d="M825.51,128.66c-.77,2.57-7.19,6.29-8.6,9.37-13.6,29.9-31.18,58.26-42.99,88.93-1.92,5.13-8.6,21.43-9.49,25.02-.9,4.24.13,8.85-.25,13.22-1.03,8.85-7.57,38.75-5.78,44.78.38,1.54,2.44,2.31,2.82,4.75,3.08,21.95,6.16,42.47,12.32,64.03,7.57,26.56,22.46,51.32,36.44,74.55,4.11,6.93,17.71,11.29,12.06,22.46-.38.77-11.93,12.31-12.7,12.7-1.77.89-3.29,1.07-4.66.78-5.36-1.15-8.21-9.77-13.43-12.84-2.06-1.28-3.85,1.54-6.03.13-13.98-8.47-39.78-57.49-44.65-73.91-10.39-35.67-21.82-95.08-18.48-131.52.39-3.98,2.57-5.9,3.08-8.98.65-4.23-.38-8.98,0-13.47,3.73-37.08,21.05-63.26,39.14-94.18,4.88-8.21,8.21-16.43,14.63-24.25,2.91-3.48,7.36-7.83,12.04-10.78h0c2.75-1.74,5.57-3,8.23-3.33,5.01-.64,8.47.9,12.19,1.16,1.93,0,6.67-2.44,7.83-1.03l.25.13s.13,1.92.9,2.69c2.7,3.21,6.55,4.75,5.14,9.62Z"/>
          <path class="d" d="M1208.27,91.91c-.34.75-.9,1.62-1.71,2.68-.02.04-.05.07-.08.11-3.59,4.75-12.96,13.73-18.86,14.24-5.91.51-7.57-6.55-11.16-8.34-2.31-1.15-4.37-.38-6.55-.9-5.52-1.67-20.41-11.93-27.97-15.52-12.45-6.03-25.66-13.6-38.5-18.35-28.61-10.65-65.44-14.76-95.59-16.94-13.22-.9-15.66,4.37-25.92,5.78-34.52,4.75-51.33,9.49-82.38,25.54-16.17,8.34-28.87,14.5-45.42,22.07-2.57,1.16-14.75,10.65-16.55,8.21-.13-.26,0-2.83-.77-4.49-1.73-3.34-9.36-8.14-11.96-12.11-.49-.75-.81-1.47-.87-2.14-.39-3.85,6.03-9.49,9.11-11.93,26.18-20.91,70.31-47.34,102.91-54.4,2.56-.52,5,0,7.06-.39,16.17-3.34,38.11-9.24,53.89-10.52,13.09-1.02,27.33.65,40.68,0,3.08,0,5.52-1.79,8.98-1.67,6.55.26,13.86,4.75,19.76,5.78,24.25,4.37,42.73,11.93,65.96,19.51,6.16,2.05,14.75,2.69,20.28,5.13,17.7,7.7,32.72,16.81,47.6,28.87.77.64,2.31.51,2.7.9h.38c.77.9-.38,8.21.39,10.9.86,2.89,3.9,3.4,4.82,5.09h0c.38.7.39,1.58-.22,2.9Z"/>
          <path class="d" d="M1303.87,358.24c-.25,4.62,1.03,12.57,0,16.42-.77,2.96-11.93,3.98-14.11,8.34-2.82,5.52,1.93,19.89.77,27.71-.38,2.44-4.36,10.78-5.65,13.86-4.88,11.03-15.27,29.89-22.84,38.62-3.21,3.72-6.93,6.29-9.62,9.75-2.44,3.21-6.55,13.21-10.52,13.6-3.59.25-5.78-2.57-8.98-3.08-7.7-1.16-13.21,4.62-18.09-2.96-1.8-2.95,5.26-10.01,7.06-13.98,4.62-10.01,7.7-22.2,12.96-32.08,2.57-4.88,17.71-23.87,18.09-25.41.64-2.18,0-4.75.39-7.06,2.44-10.39,6.42-22.97,9.11-34.39,2.96-12.57,7.83-22.97,8.73-36.31.52-7.32.39-16.81,0-24.12-.64-13.98-3.46-26.56-4.62-40.42-.38-4.75.52-10.14,0-15.01-2.31-20.66-20.92-59.54-31.69-77.76-5.01-8.6-16.94-20.54-18.99-29-.65-2.31,0-4.88-.52-6.93-1.15-4.24-7.32-3.08-5.78-13.73,1.03-7.44,10.91-10.39,14.89-16.55,2.15-1.08,4.71-1.1,7.13-.58,0,0,.01,0,.01,0,1.63.34,3.19.94,4.53,1.6v.25c2.44,4.88,6.67,9.37,8.98,14.24,3.08,6.55,13.6,27.71,15.01,32.85.9,3.34-.77,12.44,4.11,13.86,5.78,1.67,6.16-1.93,11.8,4.75,8.6,10.14,18.35,42.73,21.56,56.46,5.39,24.12,14.37,67.49,10.91,91.1-.39,2.57-3.98,26.94-4.62,35.93Z"/>
          <path class="d" d="M1216.87,510.83c-.25-1.03-13.21-13.98-14.88-15.14-8.08-5.52-13.6-1.41-20.15,3.72-19.12,15.4-44.4,27.46-67.11,37.86-7.32,3.34-17.71,5.78-24,8.98-2.18,1.02-3.46,3.46-5,3.98-2.89.84-6.02,1.53-9.3,2.09-.7.12-1.4.24-2.11.34-.52.08-1.03.17-1.56.24-1.56.23-3.15.45-4.75.65-.31.04-.62.07-.93.11-1.88.23-3.79.44-5.68.64-.04,0-.09.01-.13.01-1.38.15-2.75.29-4.12.43-.08.01-.17.02-.25.02-.72.08-1.45.15-2.16.23-.71.07-1.43.15-2.14.23-.79.09-1.58.17-2.36.26-.45.05-.9.1-1.34.15-2.22.26-4.37.55-6.42.87-9.24,1.41-15.79,5.26-25.66,4.49-21.69-1.67-49.15-6.55-70.07-13.86-24.64-8.6-53.76-20.91-73.78-37.08-2.57-2.18-4.75-5.39-7.44-7.57-7.44-6.03-15.52-11.55-22.71-17.84-11.68,4.75-15.14,12.19-13.99,24.64.47,4.83,1.34,7.81,3.27,10.56h0c1.19,1.7,2.78,3.31,4.94,5.22,7.19,6.42,23.61,17.84,32.21,21.82,7.7,3.59,6.29,4.36,10.01,6.8,3.72,2.44,12.96,6.93,17.45,9.24,4.49,2.31,13.99,3.85,17.58,6.42,1.03.77,3.34,6.42,4.49,5.26.26-.39.52-4.75,2.96-6.8,1.03-.78,7.19-3.73,8.08-3.6,3.85.9,4.23,8.08,5.65,10.91,1.02,1.93,2.82,2.83,3.46,3.98,1.29,2.31.13,6.42,3.21,7.32,7.32,2.06,16.43,1.93,23.87,4.62,15.91.64,30.03,8.85,46.32,7.57,4.88-.39,11.68-2.57,16.56-2.95,5.77-.39,12.19.64,17.96,0,5.14-.52,11.42-3.73,16.56-4.37,3.97-.38,8.08.51,11.93,0,36.44-4.88,75.58-29.89,108.3-46.06,2.31-1.16,5.39-1.28,7.83-2.57,3.08-1.67,16.55-13.21,19.25-15.91v-.51c1.54-1.67.51-5.01,1.41-6.8,1.54-3.33,5.78-4.88,4.75-8.6ZM1088.93,564.21c-1.54-.38-2.18-2.05-3.2-2.82-1.55-1.03-3.73-1.42-3.73-1.42v-.12c-1.28-.9,2.18-5.26,3.98-5.78,1.93-.52,6.8-.52,8.85-.26,7.44,1.03,3.47,13.21-5.9,10.39ZM1119.47,552.53c-.9.9-6.55.9-7.44,0-3.08-3.08,4.88-8.6,7.44-6.03.26.26.13,5.78,0,6.03Z"/>
        </g>
        <g>
          <path class="d" d="M1158.32,473.93c-23.74,19.25-49.28,35.42-79.04,43.88-12.58,3.6-31.83,8.08-44.78,9.24-14.5,1.28-8.73-.52-8.08-9.62.64-10.26-.9-21.43,0-31.57.51-7.7,3.72-15.78,2.95-23.87-1.03-11.55-.38-16.03,0-26.95.13-3.98-.9-24,0-24.77,1.03-.89,10.14-1.28,12.44-1.79,6.16-1.42,14.63-4.11,20.54-6.42,2.82-1.16,7.83-4.75,10.01-5.14,4.11-.64,11.29,9.88,16.3,9.88,1.27,0,4.12-2.62,5.04-2.65.55.93-1.03,6.67.61,9.07.77,1.15,3.34,1.67,4.62,2.95,10.26,9.11,25.02,25.92,37.21,31.82,4.11,1.92,10.65,2.57,13.86,5.65,2.95,2.95,3.21,8.98,5.91,12.06,1.28,1.54,4.75,2.18,5.26,3.72,1.41,4.49-1.28,3.21-2.82,4.49Z"/>
          <path class="d" d="M999.2,487.4c1.54-17.83-4.11-45.29-6.03-64.41-.39-4.11,1.92-10.39-2.44-12.57-5.78-2.82-20.28-2.57-24.25-6.55l-.13.13c-1.15-1.15-2.31-7.83-5.52-8.73-3.21-1.03-3.21,3.72-3.85,4.37-1.03,1.02-5.78-1.54-8.08-1.54-5.26.25-9.62,7.44-13.47,10.52-19.25,15.79-38.24,31.82-56.98,47.99-2.95,2.57-8.47,5.65-11.16,8.21-5.01,4.88,2.18,6.8,4.49,8.98,30.79,30.03,68.65,42.22,110.23,51.72,3.21-1.03,15.78,3.08,17.19,1.54.26-.26-.13-4.62.26-6.42.51-2.19,2.31-4.75,2.44-6.55.64-7.19-3.47-18.09-2.7-26.69ZM920.55,485.09c-1.03.26-6.67-1.54-6.67-1.54h.13c-.77-.64-.26-6.8,2.18-7.44,5.39-1.42,9.49,7.57,4.37,8.98Z"/>
          <path class="d" d="M994.96,186.13c-.25,2.44.39,10.52,0,11.16l-.25-.12c-1.93,1.92-9.49,1.15-12.32,1.79-7.06,1.67-16.42,5.39-23.48,7.96-3.6,1.29-6.8,4.88-11.04,3.6-1.79-.52-5.65-5.65-7.7-7.32-16.42-14.37-36.83-28.48-51.84-44.14-1.41-1.54-1.93-3.72-3.6-5.26-4.49-4.11-12.06-3.47-13.98-11.42-1.54-6.03.64-4.1,2.57-5.77,37.6-30.28,72.5-44.01,120.75-48.76,1.54-.13,3.33-1.67,4.49-1.41,3.34.64,2.57,9.62,2.31,12.7-2.05,28.36-3.21,58.26-5.91,86.99Z"/>
          <path class="d" d="M1157.55,143.36c-1.16,2.44-7.44,4.36-8.98,7.44-2.18-1.54,2.19-5.9.77-7.57,0,0-3.59-1.03-3.72-1.03-3.85-.13-19.38,11.29-12.83,15.4.77.51,8.08,1.03,4.49,3.72-.25.13-2.18.13-3.72,1.41-3.72,2.96-2.82,5.26-4.36,7.7-1.29,1.79-4.49,1.15-6.8,2.18-7.06,3.21-10.9,11.55-19.51,15.01-2.44.9-6.54,0-7.44,3.08-.52,2.06.38,4.75-.77,6.67-.77,1.03-6.42,3.98-8.21,5.26-2.06,1.41-6.29,7.44-9.11,5.14-.25-.13,3.34-4.24-.77-6.03-3.34-1.41-2.95,5.14-3.72,5.91-1.41,1.54-18.74-5.65-22.46-6.8-4.24-1.28-14.24-2.18-16.55-4.36-2.7-2.57-1.16-9.37-1.54-13.47-2.57-26.82-5.91-54.02-7.57-80.96,0-2.44-.51-15.27,0-15.79,1.03-1.02,5.14,1.29,6.8,1.42,9.24.9,17.32,1.54,26.56,3.46,4.37.9,32.6,8.08,32.6,10.91,0,.51-7.06,7.7-.77,9.75,6.42,2.06,1.79-10.01,2.31-10.52v.12c1.92-1.92,14.11,6.42,16.94,7.83,16.8,8.47,27.71,18.09,42.47,26.43,4.24,2.31,9.49.39,5.91,7.7Z"/>
          <path class="d" d="M1232.36,351.42c-8.08,18.35-12.19,41.06-20.53,59.67-5.39,2.18-8.47,8.98-10.39,14.24-3.34,3.47-13.6,24.38-16.94,24.51-.51,0-5.9-1.42-6.93-1.8-12.19-5.01-28.48-27.2-37.34-37.6-6.29-7.32-5.65-5.39-9.62-14.24-5.39-11.8-10.78-7.57-15.53-12.19-.64-.64-.77-2.44-1.67-3.46-1.41-1.54-4.62-3.85-5.39-5.14-2.57-4.88.26-4.11,3.08-6.03,12.06-8.47,23.36-17.58,35.29-26.18,6.03-4.37,27.71-21.56,32.46-23.1,9.5-3.08,22.2-3.21,32.85-4.11,1.54,0,7.44-.52,8.98-.64,2.31,0,13.73-.52,14.24,0l-.25.25c1.28,1.16-1.42,8.73-1.54,11.16-.26,3.08-.39,9.24,0,11.93.12,1.41,2.18.52,2.69,1.03,3.85,3.59-1.8,8.08-3.47,11.67Z"/>
          <path class="d" d="M911.18,381.2c-8.21,10.14-18.74,18.99-27.07,28.48-10.65,11.93-21.05,24-31.57,35.93-1.15,1.28-1.15,3.21-1.67,3.59l-.13-.26s-5.26.39-5.65,0c-.38-.38-.25-1.79-.89-2.69-22.46-31.56-44.53-64.03-48.63-104.32-.65-6.67,1.41-11.8,1.54-16.42,0-2.31-2.32-3.08-2.83-4.62-2.7-8.34,3.47-3.72,7.96-3.46,9.49.64,36.57-.26,43.24,3.21,3.98,2.05,9.88,8.73,13.73,8.73,1.8,0,3.85-2.7,5.13,1.03.65,1.92-.25,3.59,1.67,5.9,1.67,2.06,7.19,4.62,9.88,6.67,3.21,2.57,17.32,15.01,19.51,15.14,6.16.25,2.56-1.93,9.75,2.05,1.93,1.03,5.14.9,5.78,3.21.51,1.67,0,3.85.39,5.65,1.41,5.13,8.08,2.18-.13,12.19Z"/>
          <path class="d" d="M1234.03,287.26c-2.44-10.52-3.21-21.3-5.65-31.95-2.57-10.65-6.67-22.46-10.9-32.59-8.08-19.51-19.38-36.7-31.57-53.9-1.67-.51-6.16,5.01-8.21,2.96-.64-.64.77-12.7,0-13.47v-.13c-2.44-2.57-10.52,11.16-11.93,12.83-12.96,14.62-26.18,28.87-39.01,43.5-5.78,6.55-12.19,12.83-17.96,19.51l58.51,45.04c2.06,1.28,3.98-.9,6.67-.9,6.55.26,5.01,4.62,7.57,7.57,3.33,3.72,22.84,2.44,28.61,2.82,2.57.13,4.75,1.54,7.32,1.67,3.21.26,12.44.64,14.88-.13.77-.26,2.7-1.8,1.67-2.82ZM1155.89,210.66c-3.21.9-11.16-2.95-11.16-5.14,0-1.02,5.26-4.62,6.93-5v-.13c8.85-1.93,7.83,9.37,4.24,10.26Z"/>
          <path class="d" d="M909.39,226.58c-2.96-3.34-6.03-8.73-8.98-12.06-13.22-14.88-27.59-28.48-40.55-43.37-1.67-1.92-7.06-10.91-8.21-11.29-1.8-.64-5.52,3.72-6.8,5.13-24.12,27.2-38.11,63.26-47.6,97.77.51,4.11-4.49,26.3-3.34,27.46v-.13c.52.51,11.93.13,14.24,0,1.54-.13,3.08-1.41,4.62-1.41,11.8-1.03,23.87-.77,35.54-3.34,20.92-14.24,40.42-30.66,61.08-45.29,1.92-1.41,6.93-2.7,7.44-4.62,1.29-4.11-4.75-5.9-7.44-8.85ZM820.84,269.69c-.64,3.46-5.9,7.96-9.49,6.93-3.72-1.03-7.7-9.62-5.39-11.8h.13c.13-.26,4.49-1.67,5.14-1.67,3.08-.39,10.26,3.08,9.62,6.55Z"/>
          <path class="d" d="M927.35,345.64s0,3.2-.77,4.49c-1.54,2.44-2.05.38-3.34.26-1.41,0-4.75-.13-5-.26-.77-.51,0-5.39,2.31-6.03.9-.25,6.42,1.29,6.67,1.55h.13Z"/>
        </g>
        <path class="d" d="M1061.94,258.68c-36.7-40.17-108.43-13.73-113.3,39.78-.52,5.52.25,26.69,3.33,30.53l.13-.12c.52.64,2.83.51,3.6,1.67,1.15,1.54.77,7.7,2.44,11.03,8.08,16.42,35.03,31.18,52.99,32.59,2.57.13,4.24-1.54,6.03-1.54,16.29-.77,27.2-2.96,40.42-13.47,6.8-5.52,10.65-11.93,15.66-18.74,1.41-1.92,5.26-4.24,5.77-6.16.52-1.93-.12-4.11.26-5.78,6.8-28.74,2.57-47.99-17.32-69.8ZM1006.5,245.21l2.95,2.95-3.72,3.72-2.95-2.95,3.72-3.72ZM1029.6,340.42c-11.55,4.49-31.18,3.34-39.01-7.44-2.05-2.7-1.15-6.29-1.54-6.67-1.16-1.03-5.39.9-8.21-6.03-3.46-8.47-2.31-21.81,1.54-30.02,4.75-10.39,19.89-21.94,31.57-21.04,2.44.12,14.63,2.44,15.52,3.33h-.12c1.02,1.03.89,4.37,2.05,5.52,3.72,3.85,9.37,5,13.21,6.93,3.47,1.79,7.06,12.7,7.44,16.55,1.8,15.65-7.7,33.1-22.46,38.88ZM1062.71,308.21c-.26.25-5.78.25-6.03,0-2.44-2.44,3.08-10.52,6.03-7.44v-.13c.26.39.26,7.32,0,7.57ZM1059.76,294.74c.89-.78,4.49,1.41,4.49,2.31,0,4.1-6.8,0-4.49-2.31Z"/>
      </g>
      <path class="c" d="M1029.6,340.42c-11.55,4.49-31.18,3.34-39.01-7.44-2.05-2.7-1.15-6.29-1.54-6.67-1.16-1.03-5.39.9-8.21-6.03-3.46-8.47-2.31-21.81,1.54-30.02,4.75-10.39,19.89-21.94,31.57-21.04,2.44.12,14.63,2.44,15.52,3.33h-.12c1.02,1.03.89,4.37,2.05,5.52,3.72,3.85,9.37,5,13.21,6.93,3.47,1.79,7.06,12.7,7.44,16.55,1.8,15.65-7.7,33.1-22.46,38.88Z"/>
      <path class="c" d="M1093.65,404.13s.02.03.03.04c.03,0,.06,0,.08.01l-.11-.06Z"/>
    </g>
  </g>
  <rect class="b" x="0" y="0" width="2031.32" height="979.85"/>
</svg>